<?xml version="1.0" encoding="UTF-8" standalone="no"?>
<svg
   width="36"
   height="36"
   viewBox="0 0 9.5249998 9.5250003"
   version="1.1"
   id="svg8"
   inkscape:version="1.3.2 (1:1.3.2+202404261509+091e20ef0f)"
   sodipodi:docname="sdw_sam_red.svg"
   xml:space="preserve"
   xmlns:inkscape="http://www.inkscape.org/namespaces/inkscape"
   xmlns:sodipodi="http://sodipodi.sourceforge.net/DTD/sodipodi-0.dtd"
   xmlns:xlink="http://www.w3.org/1999/xlink"
   xmlns="http://www.w3.org/2000/svg"
   xmlns:svg="http://www.w3.org/2000/svg"
   xmlns:rdf="http://www.w3.org/1999/02/22-rdf-syntax-ns#"
   xmlns:cc="http://creativecommons.org/ns#"
   xmlns:dc="http://purl.org/dc/elements/1.1/"><defs
     id="defs2"><clipPath
       clipPathUnits="userSpaceOnUse"
       id="clipPath14405"><path
         sodipodi:nodetypes="ccc"
         inkscape:connector-curvature="0"
         id="path14407"
         d="m 70.310791,22.450836 h 7.975835 c 1.099735,-11.539572 -10.466575,-8.392894 -7.975835,0 z"
         style="opacity:1;vector-effect:none;fill:none;fill-opacity:1;stroke:#ef5350;stroke-width:0.529167;stroke-linecap:round;stroke-linejoin:round;stroke-miterlimit:4;stroke-dasharray:none;stroke-dashoffset:0;stroke-opacity:1" /></clipPath><clipPath
       clipPathUnits="userSpaceOnUse"
       id="clipPath14411"><path
         style="opacity:1;vector-effect:none;fill:none;fill-opacity:1;stroke:#ef5350;stroke-width:0.529167;stroke-linecap:round;stroke-linejoin:round;stroke-miterlimit:4;stroke-dasharray:none;stroke-dashoffset:0;stroke-opacity:1"
         d="m 84.598291,22.450836 h 8.830389 c 2.244794,-11.371881 -11.967398,-8.296343 -8.830389,0 z"
         id="path14413"
         inkscape:connector-curvature="0"
         sodipodi:nodetypes="ccc" /></clipPath><clipPath
       clipPathUnits="userSpaceOnUse"
       id="clipPath14399"><path
         sodipodi:nodetypes="ccc"
         inkscape:connector-curvature="0"
         id="path14401"
         d="M 70.927968,26.296328 H 93.09889 c 2.811897,13.935444 -19.67148,15.562753 -20.794141,0"
         style="opacity:1;vector-effect:none;fill:none;fill-opacity:1;stroke:#f44336;stroke-width:0.529167;stroke-linecap:round;stroke-linejoin:round;stroke-miterlimit:4;stroke-dasharray:none;stroke-dashoffset:0;stroke-opacity:1" /></clipPath><clipPath
       clipPathUnits="userSpaceOnUse"
       id="clipPath14337"><path
         sodipodi:nodetypes="ccc"
         inkscape:connector-curvature="0"
         id="path14339"
         d="m 62.904952,63.18717 c 0.404162,19.555354 22.589244,19.753853 23.226456,0 z"
         style="opacity:1;vector-effect:none;fill:none;fill-opacity:1;stroke:black;stroke-width:0.529167;stroke-linecap:round;stroke-linejoin:round;stroke-miterlimit:4;stroke-dasharray:none;stroke-dashoffset:0;stroke-opacity:1" /></clipPath><clipPath
       clipPathUnits="userSpaceOnUse"
       id="clipPath14331"><path
         sodipodi:nodetypes="ccc"
         inkscape:connector-curvature="0"
         id="path14333"
         d="m 62.904952,63.18717 c 0.404162,19.555354 22.589244,19.753853 23.226456,0 z"
         style="opacity:1;vector-effect:none;fill:none;fill-opacity:1;stroke:black;stroke-width:0.529167;stroke-linecap:round;stroke-linejoin:round;stroke-miterlimit:4;stroke-dasharray:none;stroke-dashoffset:0;stroke-opacity:1" /></clipPath><clipPath
       clipPathUnits="userSpaceOnUse"
       id="clipPath15030"><path
         sodipodi:nodetypes="ccc"
         inkscape:connector-curvature="0"
         id="path15032"
         d="m -93.858493,89.485833 c 5.705941,4.140028 15.148359,3.936677 19.179982,-0.09495 0.730697,9.913901 -19.190166,11.340777 -19.179982,0.09495 z"
         style="opacity:1;vector-effect:none;fill:none;fill-opacity:1;stroke:black;stroke-width:0.529167;stroke-linecap:round;stroke-linejoin:round;stroke-miterlimit:4;stroke-dasharray:none;stroke-dashoffset:0;stroke-opacity:1" /></clipPath><clipPath
       clipPathUnits="userSpaceOnUse"
       id="clipPath27899"><path
         inkscape:connector-curvature="0"
         id="path27901"
         d="m 427.3998,149.12888 c -1.39076,-0.0428 -2.53339,1.91968 -1.60264,3.20704 0.50049,-0.20915 1.05963,-0.44846 1.75731,-0.47542 0.69797,0.0268 1.25786,0.26622 1.75845,0.47542 0.96517,-1.33495 -0.29983,-3.39553 -1.75845,-3.1936 -0.0518,-0.007 -0.1034,-0.0119 -0.15467,-0.0135 z"
         style="opacity:1;vector-effect:none;fill:#f44336;fill-opacity:1;stroke:none;stroke-width:0.529167;stroke-linecap:round;stroke-linejoin:round;stroke-miterlimit:4;stroke-dasharray:none;stroke-dashoffset:0;stroke-opacity:1" /></clipPath><clipPath
       clipPathUnits="userSpaceOnUse"
       id="clipPath27899-5"><path
         inkscape:connector-curvature="0"
         id="path27901-6"
         d="m 427.3998,149.12888 c -1.39076,-0.0428 -2.53339,1.91968 -1.60264,3.20704 0.50049,-0.20915 1.05963,-0.44846 1.75731,-0.47542 0.69797,0.0268 1.25786,0.26622 1.75845,0.47542 0.96517,-1.33495 -0.29983,-3.39553 -1.75845,-3.1936 -0.0518,-0.007 -0.1034,-0.0119 -0.15467,-0.0135 z"
         style="opacity:1;vector-effect:none;fill:#f44336;fill-opacity:1;stroke:none;stroke-width:0.529167;stroke-linecap:round;stroke-linejoin:round;stroke-miterlimit:4;stroke-dasharray:none;stroke-dashoffset:0;stroke-opacity:1" /></clipPath><clipPath
       clipPathUnits="userSpaceOnUse"
       id="clipPath27702"><rect
         y="152.40256"
         x="391.883"
         height="0.96090502"
         width="4.071835"
         id="rect27704"
         style="opacity:1;fill:#f77e00;fill-opacity:1;fill-rule:nonzero;stroke:none;stroke-width:0.529167;stroke-linecap:round;stroke-linejoin:miter;stroke-miterlimit:4;stroke-dasharray:none;stroke-opacity:1;paint-order:stroke fill markers" /></clipPath><clipPath
       clipPathUnits="userSpaceOnUse"
       id="clipPath27702-2"><rect
         y="152.40256"
         x="391.883"
         height="0.96090502"
         width="4.071835"
         id="rect27704-9"
         style="opacity:1;fill:#f77e00;fill-opacity:1;fill-rule:nonzero;stroke:none;stroke-width:0.529167;stroke-linecap:round;stroke-linejoin:miter;stroke-miterlimit:4;stroke-dasharray:none;stroke-opacity:1;paint-order:stroke fill markers" /></clipPath><clipPath
       clipPathUnits="userSpaceOnUse"
       id="clipPath14926"><ellipse
         style="opacity:1;vector-effect:none;fill:#880e4f;fill-opacity:1;fill-rule:evenodd;stroke:#880e4f;stroke-width:0.529167;stroke-linecap:round;stroke-linejoin:bevel;stroke-miterlimit:4;stroke-dasharray:none;stroke-dashoffset:0;stroke-opacity:1;paint-order:normal"
         id="ellipse14928"
         ry="6.2294407"
         rx="2.123673"
         cy="175.24272"
         cx="2.3124452" /></clipPath><clipPath
       clipPathUnits="userSpaceOnUse"
       id="clipPath14936"><ellipse
         cx="-11.596459"
         cy="175.24272"
         rx="2.123673"
         ry="6.2294407"
         id="ellipse14938"
         style="opacity:1;vector-effect:none;fill:#880e4f;fill-opacity:1;fill-rule:evenodd;stroke:#880e4f;stroke-width:0.529167;stroke-linecap:round;stroke-linejoin:bevel;stroke-miterlimit:4;stroke-dasharray:none;stroke-dashoffset:0;stroke-opacity:1;paint-order:normal" /></clipPath><style
       type="text/css"
       id="style2989" /><clipPath
       clipPathUnits="userSpaceOnUse"
       id="clipPath5062"><path
         sodipodi:nodetypes="ccc"
         inkscape:connector-curvature="0"
         id="path5064"
         d="m -126.0046,82.461825 c 8.69362,2.854584 20.57986,1.134711 29.259495,0.09439 1.405901,7.693959 -29.973095,9.289513 -29.259495,-0.09439 z"
         style="opacity:1;vector-effect:none;fill:#ffffff;fill-opacity:1;stroke:none;stroke-width:0.52916676;stroke-linecap:round;stroke-linejoin:round;stroke-miterlimit:4;stroke-dasharray:none;stroke-dashoffset:0;stroke-opacity:1" /></clipPath><clipPath
       clipPathUnits="userSpaceOnUse"
       id="clipPath9608"><circle
         style="opacity:1;vector-effect:none;fill:white;fill-opacity:1;fill-rule:evenodd;stroke:none;stroke-width:0.533157;stroke-linecap:round;stroke-linejoin:bevel;stroke-miterlimit:4;stroke-dasharray:none;stroke-dashoffset:0;stroke-opacity:1;paint-order:normal"
         id="circle9610"
         cx="125.15514"
         cy="121.82055"
         r="6.0386748" /></clipPath><clipPath
       clipPathUnits="userSpaceOnUse"
       id="clipPath9624"><circle
         r="6.0386748"
         cy="121.82055"
         cx="-147.43008"
         id="circle9626"
         style="opacity:1;vector-effect:none;fill:white;fill-opacity:1;fill-rule:evenodd;stroke:none;stroke-width:0.533157;stroke-linecap:round;stroke-linejoin:bevel;stroke-miterlimit:4;stroke-dasharray:none;stroke-dashoffset:0;stroke-opacity:1;paint-order:normal" /></clipPath><clipPath
       clipPathUnits="userSpaceOnUse"
       id="clipPath9892"><path
         sodipodi:nodetypes="cccc"
         inkscape:connector-curvature="0"
         id="path9894"
         d="m 197.75425,126.1751 c 0.84274,-0.33856 1.98324,-0.23379 2.70254,0 1.0773,0.4817 0.75739,-1.71098 -1.56146,-1.53744 -1.96426,0.21926 -2.25346,1.8313 -1.14108,1.53744 z"
         style="opacity:1;vector-effect:none;fill:#7b2f40;fill-opacity:1;stroke:none;stroke-width:0.529167;stroke-linecap:round;stroke-linejoin:round;stroke-miterlimit:4;stroke-dasharray:none;stroke-dashoffset:0;stroke-opacity:1" /></clipPath><inkscape:path-effect
       effect="taper_stroke"
       id="path-effect34519"
       is_visible="true"
       lpeversion="1"
       stroke_width="0.529167"
       attach_start="0.40928025"
       end_offset="0.42907255"
       start_smoothing="0.5"
       end_smoothing="0.5"
       jointype="extrapolated"
       start_shape="center"
       end_shape="center"
       miter_limit="100"
       subpath="1" /><inkscape:path-effect
       effect="taper_stroke"
       id="path-effect34521"
       is_visible="true"
       lpeversion="1"
       stroke_width="0.529167"
       attach_start="0.33395742"
       end_offset="0.45886088"
       start_smoothing="0.5"
       end_smoothing="0.5"
       jointype="extrapolated"
       start_shape="center"
       end_shape="center"
       miter_limit="100"
       subpath="1" /><clipPath
       clipPathUnits="userSpaceOnUse"
       id="clipPath38688"><path
         id="path38690"
         style="font-variation-settings:normal;opacity:1;vector-effect:none;fill:white;fill-opacity:1;stroke:none;stroke-width:0.529167;stroke-linecap:round;stroke-linejoin:miter;stroke-miterlimit:4;stroke-dasharray:none;stroke-dashoffset:0;stroke-opacity:1;stop-color:black;stop-opacity:1"
         d="m 296.59842,87.039133 c -3.67506,-0.0013 -7.2984,0.539361 -7.28067,1.274339 -0.58727,5.128498 -2.15657,10.168922 -5.77951,13.743348 -2.7918,1.87194 -4.29249,4.66059 -3.51607,8.39587 2.22755,10.71617 8.51553,9.27331 16.13236,9.64386 7.6975,0.37447 15.34972,-0.71496 17.1359,-9.93066 0.78724,-4.06163 -0.79142,-6.66805 -3.56307,-8.31888 -3.16322,-3.140797 -4.49315,-8.912471 -5.53818,-12.831255 -0.18886,-1.432353 -3.91567,-1.975355 -7.59076,-1.976622 z" /></clipPath><clipPath
       clipPathUnits="userSpaceOnUse"
       id="clipPath38688-9"><path
         id="path38690-7"
         style="font-variation-settings:normal;opacity:1;vector-effect:none;fill:white;fill-opacity:1;stroke:none;stroke-width:0.529167;stroke-linecap:round;stroke-linejoin:miter;stroke-miterlimit:4;stroke-dasharray:none;stroke-dashoffset:0;stroke-opacity:1;stop-color:black;stop-opacity:1"
         d="m 296.59842,87.039133 c -3.67506,-0.0013 -7.2984,0.539361 -7.28067,1.274339 -0.58727,5.128498 -2.15657,10.168922 -5.77951,13.743348 -2.7918,1.87194 -4.29249,4.66059 -3.51607,8.39587 2.22755,10.71617 8.51553,9.27331 16.13236,9.64386 7.6975,0.37447 15.34972,-0.71496 17.1359,-9.93066 0.78724,-4.06163 -0.79142,-6.66805 -3.56307,-8.31888 -3.16322,-3.140797 -4.49315,-8.912471 -5.53818,-12.831255 -0.18886,-1.432353 -3.91567,-1.975355 -7.59076,-1.976622 z" /></clipPath><linearGradient
       inkscape:collect="always"
       xlink:href="#linearGradient44003"
       id="linearGradient44005"
       x1="282.47174"
       y1="105.01885"
       x2="282.47174"
       y2="93.045082"
       gradientUnits="userSpaceOnUse" /><linearGradient
       inkscape:collect="always"
       id="linearGradient44003"><stop
         style="stop-color:#f2e4c5;stop-opacity:1;"
         offset="0"
         id="stop43999" /><stop
         style="stop-color:#f2e4c5;stop-opacity:0;"
         offset="1"
         id="stop44001" /></linearGradient><clipPath
       clipPathUnits="userSpaceOnUse"
       id="clipPath38688-3"><path
         id="path38690-6"
         style="font-variation-settings:normal;opacity:1;vector-effect:none;fill:white;fill-opacity:1;stroke:none;stroke-width:0.529167;stroke-linecap:round;stroke-linejoin:miter;stroke-miterlimit:4;stroke-dasharray:none;stroke-dashoffset:0;stroke-opacity:1;stop-color:black;stop-opacity:1"
         d="m 296.59842,87.039133 c -3.67506,-0.0013 -7.2984,0.539361 -7.28067,1.274339 -0.58727,5.128498 -2.15657,10.168922 -5.77951,13.743348 -2.7918,1.87194 -4.29249,4.66059 -3.51607,8.39587 2.22755,10.71617 8.51553,9.27331 16.13236,9.64386 7.6975,0.37447 15.34972,-0.71496 17.1359,-9.93066 0.78724,-4.06163 -0.79142,-6.66805 -3.56307,-8.31888 -3.16322,-3.140797 -4.49315,-8.912471 -5.53818,-12.831255 -0.18886,-1.432353 -3.91567,-1.975355 -7.59076,-1.976622 z" /></clipPath></defs><sodipodi:namedview
     id="base"
     pagecolor="#3f3f3f"
     bordercolor="#7b4f8e"
     borderopacity="1"
     inkscape:pageopacity="0"
     inkscape:pageshadow="2"
     inkscape:zoom="8"
     inkscape:cx="7.3125"
     inkscape:cy="21.625"
     inkscape:document-units="px"
     inkscape:current-layer="layer1"
     inkscape:document-rotation="0"
     showgrid="false"
     inkscape:snap-page="true"
     inkscape:pagecheckerboard="true"
     inkscape:showpageshadow="false"
     showborder="true"
     borderlayer="false"
     units="px"
     inkscape:snap-smooth-nodes="true"
     inkscape:snap-bbox="true"
     inkscape:bbox-paths="true"
     inkscape:bbox-nodes="true"
     inkscape:object-paths="true"
     inkscape:deskcolor="#2f2f2f" /><metadata
     id="metadata5"><rdf:RDF><cc:Work
         rdf:about=""><dc:format>image/svg+xml</dc:format><dc:type
           rdf:resource="http://purl.org/dc/dcmitype/StillImage" /></cc:Work></rdf:RDF></metadata><g
     inkscape:label="Layer 1"
     inkscape:groupmode="layer"
     id="layer1"
     transform="translate(-13.664881,-15.070964)"><g
       id="g44131"
       transform="matrix(0.24041873,0,0,0.24041873,-41.591793,-23.037619)"
       inkscape:label="samred"><path
         id="path43227"
         style="opacity:1;fill:#dd2e44;fill-opacity:1;stroke:none;stroke-width:0.529167;stroke-linecap:round;stroke-linejoin:round;stroke-dasharray:none;stroke-opacity:1"
         d="m 239.5093,167.30684 -0.4346,3.98581 -4.79816,-3.98167 c -2.22938,0.0825 -3.99924,1.90299 -3.99924,4.15323 v 0.45992 l 3.50056,2.15543 -3.50056,1.62625 v 8.74314 l 3.92328,2.41536 -3.92328,1.82262 v 2.75281 c 0,2.30308 1.85377,4.15737 4.15685,4.15737 h 4.53048 l 0.37827,-3.46801 4.17959,3.46801 h 12.57856 l 0.37827,-3.46801 4.17959,3.46801 h 4.19509 c 2.25187,0 4.07421,-1.77282 4.15427,-4.00441 l -4.06642,-1.88929 4.06952,-2.50527 v -8.99067 l -3.6468,-1.69395 3.6468,-2.24534 v -2.80397 c 0,-2.30314 -1.85421,-4.15737 -4.15737,-4.15737 h -1.97042 l -0.45217,4.14704 -4.99711,-4.14704 z" /><g
         id="g43247"
         transform="translate(-37.833704,81.112536)"><path
           style="font-variation-settings:normal;opacity:1;fill:#302f31;fill-opacity:1;stroke:#dd2e44;stroke-width:1.05833;stroke-linecap:round;stroke-linejoin:round;stroke-miterlimit:4;stroke-dasharray:none;stroke-dashoffset:0;stroke-opacity:1;paint-order:stroke fill markers;stop-color:black;stop-opacity:1"
           d="m 282.53153,88.268105 c -2.09046,-2.440455 -5.45551,-4.720086 -9.11564,-6.575767 l 2.914,-3.460816 c 3.21449,2.633799 5.3829,6.505501 6.20164,10.036583 z"
           id="path43229"
           sodipodi:nodetypes="cccc"
           inkscape:transform-center-x="4.6138145"
           inkscape:transform-center-y="-4.6053147" /><path
           style="font-variation-settings:normal;opacity:1;fill:#302f31;fill-opacity:1;stroke:#dd2e44;stroke-width:1.05833;stroke-linecap:round;stroke-linejoin:round;stroke-miterlimit:4;stroke-dasharray:none;stroke-dashoffset:0;stroke-opacity:1;paint-order:stroke fill markers;stop-color:black;stop-opacity:1"
           d="m 292.58362,88.332727 c 1.93277,-2.567154 5.14771,-5.053999 8.68382,-7.136302 l -3.12598,-3.270607 c -3.0424,2.830839 -4.9629,6.831307 -5.55784,10.406909 z"
           id="path43231"
           sodipodi:nodetypes="cccc"
           inkscape:transform-center-x="-4.5585417"
           inkscape:transform-center-y="-4.2956599" /><path
           id="path43233"
           style="font-variation-settings:normal;opacity:1;fill:url(#linearGradient44005);fill-opacity:1;stroke:none;stroke-width:0.500389;stroke-linecap:round;stroke-linejoin:miter;stroke-miterlimit:4;stroke-dasharray:none;stroke-dashoffset:0;stroke-opacity:1;stop-color:black;stop-opacity:1"
           d="m 287.42161,87.039132 c -3.63081,-0.0011 -7.21052,0.488171 -7.193,1.153393 -0.58018,4.641753 -2.13059,9.20379 -5.70988,12.438965 -2.75819,1.69428 -4.24081,4.21826 -3.47372,7.59902 2.20072,9.6991 8.41296,8.39319 15.93804,8.72857 7.60479,0.33893 15.16483,-0.64711 16.92952,-8.98815 0.77775,-3.67614 -0.78191,-6.03518 -3.52017,-7.52933 -3.12512,-2.842708 -4.43904,-8.066594 -5.47146,-11.613446 -0.18658,-1.296409 -3.86852,-1.787874 -7.49933,-1.789022 z" /><path
           id="path43235"
           style="font-variation-settings:normal;opacity:1;fill:#8f281c;fill-opacity:1;stroke:none;stroke-width:0.529167;stroke-linecap:round;stroke-linejoin:miter;stroke-miterlimit:4;stroke-dasharray:none;stroke-dashoffset:0;stroke-opacity:1;stop-color:black;stop-opacity:1"
           d="m 290.94819,86.005383 c -1.25593,0.0066 -1.9195,1.717197 -3.09854,2.11327 -0.70965,3.590466 -2.54848,10.79397 -5.23379,13.479277 0.63377,-0.0456 1.33654,-0.32531 2.00711,-0.50177 -0.082,0.94941 -0.67025,1.64051 -1.00355,2.47375 1.16138,-0.5029 2.12019,-1.35944 2.83238,-2.33061 0.16239,1.17723 -0.62941,2.42327 -1.21904,3.40599 2.33125,-2.20758 5.51144,-5.449522 5.73608,-8.819098 3.71882,2.255914 8.36524,2.332411 11.37967,0 0.22464,3.369576 3.40482,6.611518 5.73608,8.819098 -0.58963,-0.98272 -1.38144,-2.22876 -1.21905,-3.40599 0.71219,0.97117 1.67101,1.82771 2.83239,2.33061 -0.3333,-0.83324 -0.92156,-1.52434 -1.00356,-2.47375 0.67057,0.17646 1.37335,0.45617 2.00712,0.50177 -2.68531,-2.685307 -4.52414,-9.888811 -5.23379,-13.479277 -2.78473,-0.935469 -7.11143,-2.556649 -10.02766,-2.355101 -1.68167,-0.116203 -2.78128,0.232838 -4.49185,0.241831 z"
           sodipodi:nodetypes="scccccccccccccccs"
           clip-path="url(#clipPath38688-3)"
           transform="matrix(0.9879554,0,0,0.90509021,-5.6044137,8.2608654)" /><path
           id="path43237"
           style="opacity:1;fill:#302f31;fill-opacity:1;stroke-width:0.529167;stroke-linecap:round;stroke-linejoin:round"
           d="m 293.24447,101.1599 c 0,1.94032 -2.38311,0.82622 -5.13521,0.82622 -2.75209,0 -5.0845,1.3676 -5.0845,-0.57272 0,-1.940327 2.43381,-5.946824 5.1859,-5.946825 2.75209,-3e-6 5.03381,3.753 5.03381,5.693325 z"
           sodipodi:nodetypes="sssss" /><ellipse
           style="opacity:1;fill:#f9f9f9;fill-opacity:1;stroke:none;stroke-width:0.529167;stroke-linecap:round;stroke-linejoin:round;stroke-dasharray:none;stroke-opacity:1"
           id="ellipse43239"
           cx="268.98529"
           cy="-138.32918"
           rx="0.65908784"
           ry="1.571671"
           transform="rotate(45.998519)" /><g
           id="g43245"
           style="opacity:0.573237;stroke-width:1.02855"
           transform="matrix(1,0,0,0.94526129,-0.1520972,5.3515319)"><path
             style="font-variation-settings:normal;opacity:1;fill:none;fill-opacity:1;stroke:#302f31;stroke-width:0.544273;stroke-linecap:round;stroke-linejoin:miter;stroke-miterlimit:4;stroke-dasharray:none;stroke-dashoffset:0;stroke-opacity:1;stop-color:black;stop-opacity:1"
             d="m 288.33834,102.15862 v 4.66431 l -2.83914,5.88109"
             id="path43241" /><path
             style="font-variation-settings:normal;opacity:1;fill:none;fill-opacity:1;stroke:#302f31;stroke-width:0.544273;stroke-linecap:round;stroke-linejoin:miter;stroke-miterlimit:4;stroke-dasharray:none;stroke-dashoffset:0;stroke-opacity:1;stop-color:black;stop-opacity:1"
             d="m 288.35935,106.96018 2.53495,5.77969"
             id="path43243" /></g></g></g></g></svg>
