<?xml version="1.0" encoding="UTF-8" standalone="no"?>
<svg
   width="36"
   height="36"
   viewBox="0 0 9.5249998 9.5250003"
   version="1.1"
   id="svg8"
   inkscape:version="1.3.2 (1:1.3.2+202404261509+091e20ef0f)"
   sodipodi:docname="neurodiversity.svg"
   xml:space="preserve"
   xmlns:inkscape="http://www.inkscape.org/namespaces/inkscape"
   xmlns:sodipodi="http://sodipodi.sourceforge.net/DTD/sodipodi-0.dtd"
   xmlns="http://www.w3.org/2000/svg"
   xmlns:svg="http://www.w3.org/2000/svg"
   xmlns:rdf="http://www.w3.org/1999/02/22-rdf-syntax-ns#"
   xmlns:cc="http://creativecommons.org/ns#"
   xmlns:dc="http://purl.org/dc/elements/1.1/"><defs
     id="defs2"><clipPath
       clipPathUnits="userSpaceOnUse"
       id="clipPath14405"><path
         sodipodi:nodetypes="ccc"
         inkscape:connector-curvature="0"
         id="path14407"
         d="m 70.310791,22.450836 h 7.975835 c 1.099735,-11.539572 -10.466575,-8.392894 -7.975835,0 z"
         style="opacity:1;vector-effect:none;fill:none;fill-opacity:1;stroke:#ef5350;stroke-width:0.529167;stroke-linecap:round;stroke-linejoin:round;stroke-miterlimit:4;stroke-dasharray:none;stroke-dashoffset:0;stroke-opacity:1" /></clipPath><clipPath
       clipPathUnits="userSpaceOnUse"
       id="clipPath14411"><path
         style="opacity:1;vector-effect:none;fill:none;fill-opacity:1;stroke:#ef5350;stroke-width:0.529167;stroke-linecap:round;stroke-linejoin:round;stroke-miterlimit:4;stroke-dasharray:none;stroke-dashoffset:0;stroke-opacity:1"
         d="m 84.598291,22.450836 h 8.830389 c 2.244794,-11.371881 -11.967398,-8.296343 -8.830389,0 z"
         id="path14413"
         inkscape:connector-curvature="0"
         sodipodi:nodetypes="ccc" /></clipPath><clipPath
       clipPathUnits="userSpaceOnUse"
       id="clipPath14399"><path
         sodipodi:nodetypes="ccc"
         inkscape:connector-curvature="0"
         id="path14401"
         d="M 70.927968,26.296328 H 93.09889 c 2.811897,13.935444 -19.67148,15.562753 -20.794141,0"
         style="opacity:1;vector-effect:none;fill:none;fill-opacity:1;stroke:#f44336;stroke-width:0.529167;stroke-linecap:round;stroke-linejoin:round;stroke-miterlimit:4;stroke-dasharray:none;stroke-dashoffset:0;stroke-opacity:1" /></clipPath><clipPath
       clipPathUnits="userSpaceOnUse"
       id="clipPath14337"><path
         sodipodi:nodetypes="ccc"
         inkscape:connector-curvature="0"
         id="path14339"
         d="m 62.904952,63.18717 c 0.404162,19.555354 22.589244,19.753853 23.226456,0 z"
         style="opacity:1;vector-effect:none;fill:none;fill-opacity:1;stroke:black;stroke-width:0.529167;stroke-linecap:round;stroke-linejoin:round;stroke-miterlimit:4;stroke-dasharray:none;stroke-dashoffset:0;stroke-opacity:1" /></clipPath><clipPath
       clipPathUnits="userSpaceOnUse"
       id="clipPath14331"><path
         sodipodi:nodetypes="ccc"
         inkscape:connector-curvature="0"
         id="path14333"
         d="m 62.904952,63.18717 c 0.404162,19.555354 22.589244,19.753853 23.226456,0 z"
         style="opacity:1;vector-effect:none;fill:none;fill-opacity:1;stroke:black;stroke-width:0.529167;stroke-linecap:round;stroke-linejoin:round;stroke-miterlimit:4;stroke-dasharray:none;stroke-dashoffset:0;stroke-opacity:1" /></clipPath><clipPath
       clipPathUnits="userSpaceOnUse"
       id="clipPath15030"><path
         sodipodi:nodetypes="ccc"
         inkscape:connector-curvature="0"
         id="path15032"
         d="m -93.858493,89.485833 c 5.705941,4.140028 15.148359,3.936677 19.179982,-0.09495 0.730697,9.913901 -19.190166,11.340777 -19.179982,0.09495 z"
         style="opacity:1;vector-effect:none;fill:none;fill-opacity:1;stroke:black;stroke-width:0.529167;stroke-linecap:round;stroke-linejoin:round;stroke-miterlimit:4;stroke-dasharray:none;stroke-dashoffset:0;stroke-opacity:1" /></clipPath><clipPath
       clipPathUnits="userSpaceOnUse"
       id="clipPath27899"><path
         inkscape:connector-curvature="0"
         id="path27901"
         d="m 427.3998,149.12888 c -1.39076,-0.0428 -2.53339,1.91968 -1.60264,3.20704 0.50049,-0.20915 1.05963,-0.44846 1.75731,-0.47542 0.69797,0.0268 1.25786,0.26622 1.75845,0.47542 0.96517,-1.33495 -0.29983,-3.39553 -1.75845,-3.1936 -0.0518,-0.007 -0.1034,-0.0119 -0.15467,-0.0135 z"
         style="opacity:1;vector-effect:none;fill:#f44336;fill-opacity:1;stroke:none;stroke-width:0.529167;stroke-linecap:round;stroke-linejoin:round;stroke-miterlimit:4;stroke-dasharray:none;stroke-dashoffset:0;stroke-opacity:1" /></clipPath><clipPath
       clipPathUnits="userSpaceOnUse"
       id="clipPath27899-5"><path
         inkscape:connector-curvature="0"
         id="path27901-6"
         d="m 427.3998,149.12888 c -1.39076,-0.0428 -2.53339,1.91968 -1.60264,3.20704 0.50049,-0.20915 1.05963,-0.44846 1.75731,-0.47542 0.69797,0.0268 1.25786,0.26622 1.75845,0.47542 0.96517,-1.33495 -0.29983,-3.39553 -1.75845,-3.1936 -0.0518,-0.007 -0.1034,-0.0119 -0.15467,-0.0135 z"
         style="opacity:1;vector-effect:none;fill:#f44336;fill-opacity:1;stroke:none;stroke-width:0.529167;stroke-linecap:round;stroke-linejoin:round;stroke-miterlimit:4;stroke-dasharray:none;stroke-dashoffset:0;stroke-opacity:1" /></clipPath><clipPath
       clipPathUnits="userSpaceOnUse"
       id="clipPath27702"><rect
         y="152.40256"
         x="391.883"
         height="0.96090502"
         width="4.071835"
         id="rect27704"
         style="opacity:1;fill:#f77e00;fill-opacity:1;fill-rule:nonzero;stroke:none;stroke-width:0.529167;stroke-linecap:round;stroke-linejoin:miter;stroke-miterlimit:4;stroke-dasharray:none;stroke-opacity:1;paint-order:stroke fill markers" /></clipPath><clipPath
       clipPathUnits="userSpaceOnUse"
       id="clipPath27702-2"><rect
         y="152.40256"
         x="391.883"
         height="0.96090502"
         width="4.071835"
         id="rect27704-9"
         style="opacity:1;fill:#f77e00;fill-opacity:1;fill-rule:nonzero;stroke:none;stroke-width:0.529167;stroke-linecap:round;stroke-linejoin:miter;stroke-miterlimit:4;stroke-dasharray:none;stroke-opacity:1;paint-order:stroke fill markers" /></clipPath><clipPath
       clipPathUnits="userSpaceOnUse"
       id="clipPath14926"><ellipse
         style="opacity:1;vector-effect:none;fill:#880e4f;fill-opacity:1;fill-rule:evenodd;stroke:#880e4f;stroke-width:0.529167;stroke-linecap:round;stroke-linejoin:bevel;stroke-miterlimit:4;stroke-dasharray:none;stroke-dashoffset:0;stroke-opacity:1;paint-order:normal"
         id="ellipse14928"
         ry="6.2294407"
         rx="2.123673"
         cy="175.24272"
         cx="2.3124452" /></clipPath><clipPath
       clipPathUnits="userSpaceOnUse"
       id="clipPath14936"><ellipse
         cx="-11.596459"
         cy="175.24272"
         rx="2.123673"
         ry="6.2294407"
         id="ellipse14938"
         style="opacity:1;vector-effect:none;fill:#880e4f;fill-opacity:1;fill-rule:evenodd;stroke:#880e4f;stroke-width:0.529167;stroke-linecap:round;stroke-linejoin:bevel;stroke-miterlimit:4;stroke-dasharray:none;stroke-dashoffset:0;stroke-opacity:1;paint-order:normal" /></clipPath><style
       type="text/css"
       id="style2989" /><clipPath
       clipPathUnits="userSpaceOnUse"
       id="clipPath5062"><path
         sodipodi:nodetypes="ccc"
         inkscape:connector-curvature="0"
         id="path5064"
         d="m -126.0046,82.461825 c 8.69362,2.854584 20.57986,1.134711 29.259495,0.09439 1.405901,7.693959 -29.973095,9.289513 -29.259495,-0.09439 z"
         style="opacity:1;vector-effect:none;fill:#ffffff;fill-opacity:1;stroke:none;stroke-width:0.52916676;stroke-linecap:round;stroke-linejoin:round;stroke-miterlimit:4;stroke-dasharray:none;stroke-dashoffset:0;stroke-opacity:1" /></clipPath></defs><sodipodi:namedview
     id="base"
     pagecolor="#3f3f3f"
     bordercolor="#7b4f8e"
     borderopacity="1"
     inkscape:pageopacity="0"
     inkscape:pageshadow="2"
     inkscape:zoom="5.6568543"
     inkscape:cx="30.847533"
     inkscape:cy="30.582368"
     inkscape:document-units="px"
     inkscape:current-layer="layer1"
     inkscape:document-rotation="0"
     showgrid="false"
     inkscape:snap-page="true"
     inkscape:pagecheckerboard="true"
     inkscape:showpageshadow="false"
     showborder="true"
     borderlayer="false"
     units="px"
     inkscape:snap-smooth-nodes="true"
     inkscape:snap-bbox="true"
     inkscape:bbox-paths="true"
     inkscape:bbox-nodes="true"
     inkscape:object-paths="true"
     inkscape:deskcolor="#2f2f2f" /><metadata
     id="metadata5"><rdf:RDF><cc:Work
         rdf:about=""><dc:format>image/svg+xml</dc:format><dc:type
           rdf:resource="http://purl.org/dc/dcmitype/StillImage" /></cc:Work></rdf:RDF></metadata><g
     inkscape:label="Layer 1"
     inkscape:groupmode="layer"
     id="layer1"
     transform="translate(-13.664881,-15.070964)"><g
       id="g1"><path
         sodipodi:nodetypes="cc"
         inkscape:connector-curvature="0"
         id="path4852"
         d="m 21.167211,20.982114 c 0.619926,-0.377111 0.731981,-1.274409 0.512674,-1.608271"
         style="vector-effect:none;fill:none;fill-opacity:1;stroke:#00897b;stroke-width:1.32292;stroke-linecap:butt;stroke-linejoin:round;stroke-miterlimit:4;stroke-dasharray:none;stroke-dashoffset:0;stroke-opacity:1" /><path
         style="vector-effect:none;fill:none;fill-opacity:1;stroke:#4fc3f7;stroke-width:1.32292;stroke-linecap:butt;stroke-linejoin:round;stroke-miterlimit:4;stroke-dasharray:none;stroke-dashoffset:0;stroke-opacity:1"
         d="m 19.715121,21.053625 c 0.609709,0.407659 1.283794,0.0645 1.517169,-0.138191"
         id="path4850"
         inkscape:connector-curvature="0"
         sodipodi:nodetypes="cc" /><path
         sodipodi:nodetypes="cc"
         inkscape:connector-curvature="0"
         id="path4848"
         d="m 18.434082,19.949824 c 0.506683,0.47246 0.631712,0.66604 1.297403,1.113131"
         style="vector-effect:none;fill:none;fill-opacity:1;stroke:#1565c0;stroke-width:1.32292;stroke-linecap:butt;stroke-linejoin:round;stroke-miterlimit:4;stroke-dasharray:none;stroke-dashoffset:0;stroke-opacity:1" /><path
         style="vector-effect:none;fill:none;fill-opacity:1;stroke:#43a047;stroke-width:1.32292;stroke-linecap:butt;stroke-linejoin:round;stroke-miterlimit:4;stroke-dasharray:none;stroke-dashoffset:0;stroke-opacity:1"
         d="m 21.736138,19.525644 c -0.167271,-0.95809 -1.113047,-1.279841 -1.543739,-0.988151"
         id="path4854"
         inkscape:connector-curvature="0"
         sodipodi:nodetypes="cc" /><path
         sodipodi:nodetypes="cc"
         inkscape:connector-curvature="0"
         id="path4856"
         d="m 18.772767,19.336113 c 0.36506,-0.48095 1.197204,-0.781799 1.882038,-0.800029"
         style="vector-effect:none;fill:none;fill-opacity:1;stroke:#c0ca33;stroke-width:1.32292;stroke-linecap:butt;stroke-linejoin:round;stroke-miterlimit:4;stroke-dasharray:none;stroke-dashoffset:0;stroke-opacity:1" /><path
         style="vector-effect:none;fill:none;fill-opacity:1;stroke:#8e24aa;stroke-width:1.32292;stroke-linecap:butt;stroke-linejoin:round;stroke-miterlimit:4;stroke-dasharray:none;stroke-dashoffset:0;stroke-opacity:1"
         d="m 17.412043,18.898534 c 0.516062,0.54097 0.511634,0.54382 1.156313,1.194"
         id="path4846"
         inkscape:connector-curvature="0"
         sodipodi:nodetypes="cc" /><path
         sodipodi:nodetypes="cc"
         inkscape:connector-curvature="0"
         id="path4844"
         d="m 15.671427,18.607673 c 0.632618,-0.295559 1.320492,-0.0951 1.758069,0.317759"
         style="vector-effect:none;fill:none;fill-opacity:1;stroke:#c2185b;stroke-width:1.32292;stroke-linecap:butt;stroke-linejoin:round;stroke-miterlimit:4;stroke-dasharray:none;stroke-dashoffset:0;stroke-opacity:1" /><path
         style="vector-effect:none;fill:none;fill-opacity:1;stroke:#e53935;stroke-width:1.32292;stroke-linecap:butt;stroke-linejoin:round;stroke-miterlimit:4;stroke-dasharray:none;stroke-dashoffset:0;stroke-opacity:1"
         d="m 15.021412,20.166482 c -0.164578,-0.660648 0.287222,-1.364398 0.79617,-1.612928"
         id="path4842"
         inkscape:connector-curvature="0"
         sodipodi:nodetypes="cc" /><path
         sodipodi:nodetypes="cc"
         inkscape:connector-curvature="0"
         id="path4840"
         d="m 16.252857,21.218584 c -0.56851,0.002 -0.952743,-0.48617 -1.270318,-1.15471"
         style="vector-effect:none;fill:none;fill-opacity:1;stroke:#fb8c00;stroke-width:1.32292;stroke-linecap:butt;stroke-linejoin:round;stroke-miterlimit:4;stroke-dasharray:none;stroke-dashoffset:0;stroke-opacity:1" /><path
         style="vector-effect:none;fill:none;fill-opacity:1;stroke:#fdd835;stroke-width:1.32292;stroke-linecap:butt;stroke-linejoin:round;stroke-miterlimit:4;stroke-dasharray:none;stroke-dashoffset:0;stroke-opacity:1"
         d="m 17.754759,20.578355 c -0.389304,0.388488 -0.832035,0.645549 -1.567472,0.64351"
         id="path4836"
         inkscape:connector-curvature="0"
         sodipodi:nodetypes="cc" /><rect
         style="opacity:0.156;fill:white;fill-opacity:1;fill-rule:evenodd;stroke:none;stroke-width:0.38202;stroke-linecap:butt;stroke-linejoin:miter;stroke-miterlimit:4;stroke-dasharray:none;stroke-opacity:1;paint-order:stroke fill markers"
         id="rect4858"
         width="8.0289965"
         height="4.6936426"
         x="14.359118"
         y="17.57814" /><path
         style="fill:white;stroke-width:0.264583"
         d="m 18.427381,15.070964 a 4.7625,4.7625 0 0 0 -4.7625,4.7625 4.7625,4.7625 0 0 0 4.7625,4.7625 4.7625,4.7625 0 0 0 4.7625,-4.7625 4.7625,4.7625 0 0 0 -4.7625,-4.7625 z m -2.001945,2.988447 c 1.113367,0 2.190358,1.383818 2.30942,1.54151 0.242888,0.320679 1.075623,1.235066 1.693954,1.235066 0.552978,0 1.003039,-0.450071 1.003039,-1.00304 0,-0.55298 -0.450061,-1.002523 -1.003039,-1.002523 -0.325439,0 -0.709605,0.254242 -1.03663,0.541051 -0.08202,-0.09207 -0.148793,-0.173475 -0.194303,-0.233577 -0.03334,-0.04392 -0.14221,-0.183701 -0.303341,-0.3607 0.424392,-0.367772 0.974415,-0.717787 1.534274,-0.717787 0.978429,0 1.774318,0.795637 1.774052,1.773536 0,0.97816 -0.795888,1.774053 -1.774052,1.774053 -1.113368,0 -2.190358,-1.383818 -2.30942,-1.541509 -0.242888,-0.320679 -1.075358,-1.235067 -1.693954,-1.235067 -0.552979,0 -1.002523,0.449543 -1.002523,1.002523 0,0.552969 0.449544,1.00304 1.002523,1.00304 0.313267,0 0.681381,-0.234929 0.999939,-0.507981 0.06826,0.07805 0.124898,0.147905 0.164848,0.200505 0.03519,0.04657 0.155009,0.200135 0.33228,0.392224 -0.419101,0.356132 -0.953348,0.686265 -1.497067,0.686265 -0.978164,0 -1.774052,-0.795376 -1.774052,-1.773536 0,-0.978159 0.795888,-1.774053 1.774052,-1.774053 z"
         id="circle4744"
         inkscape:connector-curvature="0" /></g></g></svg>
